<svg xmlns="http://www.w3.org/2000/svg" width="33" height="82" fill="none"><path fill="#fff" d="M27.299 6.524c-1.195 1.204-2.67 1.937-3.935 2.358-1.235.442-2.259.543-2.4.432-.14-.11-.25-1.114 0-2.48.262-1.344.914-3.03 2.22-4.366C24.487 1.133 26.173.451 27.53.17c1.355-.28 2.379-.16 2.49-.01.1.14-.021 1.145-.422 2.4-.412 1.254-1.105 2.74-2.29 3.954l-.01.01ZM18.476 7.638c.13 3.824-1.727 6.856-2.078 6.896-.17 0-.994-.703-1.827-1.927-.833-1.225-1.656-2.962-1.767-4.98C12.574 3.563 15.374.25 15.725.3c.372.02 2.61 3.493 2.74 7.328l.01.01ZM23.233 11.422c-3.663.502-5.731 3.624-5.56 3.915.07.16 1.074.572 2.499.873 1.405.291 3.232.492 4.969.231 3.433-.512 5.41-2.7 5.34-3.021-.1-.291-3.594-2.5-7.238-1.998h-.01ZM12.563 16.541c.803 3.775-.452 7.077-.763 7.208-.311.08-3.885-2.128-4.824-6.133-.934-4.016 1.295-7.89 1.676-7.87.372-.06 3.142 3.021 3.925 6.795h-.01ZM17.913 19.433c-3.493 1.134-4.959 4.587-4.708 4.848.201.291 4.246.773 7.509-.301 3.272-1.064 4.748-3.463 4.647-3.765-.16-.27-3.945-1.887-7.448-.782ZM8.467 26.52c.381.883.632 1.766.823 2.6.18.822.24 1.595.26 2.258.101 1.345-.1 2.288-.25 2.369-.15.08-1.195-.211-2.46-.984-1.234-.763-2.79-2.058-3.623-3.925a9.989 9.989 0 0 1-.833-2.88c-.09-.944-.07-1.858.02-2.65.17-1.597.692-2.65.843-2.711.17-.06 1.104.522 2.158 1.586a14.987 14.987 0 0 1 1.606 1.897c.542.743 1.054 1.566 1.446 2.45l.01-.01ZM14.31 28.206a6.378 6.378 0 0 0-1.938 1.626c-.492.612-.893 1.255-1.154 1.847-.472 1.194-.553 2.148-.422 2.248.12.11 1.225.06 2.64-.25 1.446-.312 3.092-.864 4.607-1.717 2.861-1.697 3.885-4.166 3.684-4.447-.11-.12-1.154-.382-2.59-.412a11.9 11.9 0 0 0-2.378.191c-.814.17-1.657.452-2.44.904l-.01.01ZM6.72 37.26c.593.773 1.105 1.566 1.466 2.319.372.763.592 1.485.823 2.128.422 1.274.462 2.238.332 2.359-.241.21-4.377-.03-7.127-3.233C.929 39.227.226 37.21.086 35.593c-.09-.803-.1-1.515-.07-2.027.05-.512.15-.833.23-.884.16-.11 1.195.251 2.45 1.044C4 34.52 5.555 35.714 6.71 37.25l.01.01ZM12.793 37.47c-.662.623-1.094 1.336-1.455 2.048-.342.713-.593 1.436-.653 2.068-.17 1.275-.02 2.219.13 2.289.312.17 4.167-1.355 6.525-3.704 1.255-1.185 1.827-2.38 2.239-3.333.18-.471.26-.883.281-1.194.04-.311.03-.512-.04-.552-.13-.09-1.215-.1-2.63.19-1.375.302-3.052.944-4.407 2.189h.01ZM7.725 48.11c1.565 1.185 2.64 2.58 3.282 3.745.723 1.134 1.004 2.058.903 2.198-.1.141-1.164.372-2.63.291-.732-.04-1.576-.17-2.459-.431a9.477 9.477 0 0 1-1.335-.502 8.383 8.383 0 0 1-1.265-.773c-1.646-1.225-2.81-2.961-3.342-4.487-.573-1.506-.733-2.69-.583-2.83.231-.292 4.387.39 7.419 2.79h.01ZM13.657 46.806c-.934 1.526-1.124 3.232-1.044 4.527.15 1.275.532 2.148.703 2.189.16.04 1.104-.512 2.208-1.456a16.441 16.441 0 0 0 1.697-1.666c.28-.311.542-.643.793-.984.26-.341.521-.703.752-1.074.914-1.476 1.165-2.81 1.325-3.844.11-1.014-.1-1.717-.21-1.777-.312-.09-4.216.983-6.204 4.075l-.02.01ZM11.238 58.32c.894.401 1.616.913 2.289 1.425a11.231 11.231 0 0 1 1.696 1.526c.884.994 1.305 1.857 1.265 2.008-.15.31-4.005 1.746-7.76.15-3.764-1.586-5.55-5.762-5.3-6.083.201-.351 4.267-.612 7.82.974h-.01ZM16.749 55.77c-.291.853-.442 1.737-.422 2.53.03.783.17 1.515.352 2.148.361 1.245.873 2.057 1.064 2.047.18 0 .973-.702 1.877-1.846.913-1.155 1.917-2.71 2.429-4.367 1.064-3.292.07-5.872-.22-5.942-.282-.04-3.966 1.997-5.1 5.44l.02-.01ZM16.568 67.565c1.837.502 3.393 1.355 4.396 2.228 1.004.863 1.597 1.616 1.556 1.777-.09.311-3.764 2.319-7.608 1.375a10.167 10.167 0 0 1-2.65-1.064c-.773-.472-1.416-1.044-1.948-1.576-1.054-1.074-1.616-2.028-1.556-2.198.11-.342 4.136-1.536 7.82-.532l-.01-.01ZM21.557 64.102c-.311 1.837.21 3.443.732 4.647.522 1.205 1.195 1.887 1.376 1.867.351-.02 2.77-3.312 3.292-6.836.12-.883.1-1.686 0-2.409-.08-.733-.21-1.385-.391-1.917-.352-1.074-.854-1.706-1.014-1.706-.321.02-3.373 2.69-3.975 6.354h-.02ZM23.163 75.796c1.867.26 3.523.903 4.617 1.636 1.114.713 1.747 1.436 1.727 1.606-.06.332-3.443 2.64-7.358 2.259-.974-.1-1.897-.352-2.72-.683a11.372 11.372 0 0 1-2.088-1.255c-1.165-.883-1.827-1.726-1.787-1.907.07-.351 3.844-2.138 7.609-1.656ZM27.66 71.71c-.04 3.694 2.58 6.324 2.88 6.254.332-.06 2.47-3.634 2.46-7.217 0-.894-.14-1.707-.351-2.43a8.954 8.954 0 0 0-.683-1.907c-.522-1.044-1.124-1.646-1.285-1.616-.32.06-2.93 3.182-3.021 6.906v.01Z"/></svg>